<?xml version="1.0" encoding="UTF-8" standalone="no"?>
<svg
   xmlns:dc="http://purl.org/dc/elements/1.1/"
   xmlns:cc="http://creativecommons.org/ns#"
   xmlns:rdf="http://www.w3.org/1999/02/22-rdf-syntax-ns#"
   xmlns:svg="http://www.w3.org/2000/svg"
   xmlns="http://www.w3.org/2000/svg"
   xmlns:sodipodi="http://sodipodi.sourceforge.net/DTD/sodipodi-0.dtd"
   xmlns:inkscape="http://www.inkscape.org/namespaces/inkscape"
   width="55cm"
   height="14cm"
   viewBox="130 164 1098 265"
   version="1.1"
   id="svg230"
   sodipodi:docname="docker_architecture.svg"
   inkscape:version="0.92.4 (5da689c313, 2019-01-14)">
  <metadata
     id="metadata236">
    <rdf:RDF>
      <cc:Work
         rdf:about="">
        <dc:format>image/svg+xml</dc:format>
        <dc:type
           rdf:resource="http://purl.org/dc/dcmitype/StillImage" />
        <dc:title></dc:title>
      </cc:Work>
    </rdf:RDF>
  </metadata>
  <defs
     id="defs234" />
  <sodipodi:namedview
     pagecolor="#ffffff"
     bordercolor="#666666"
     borderopacity="1"
     objecttolerance="10"
     gridtolerance="10"
     guidetolerance="10"
     inkscape:pageopacity="0"
     inkscape:pageshadow="2"
     inkscape:window-width="1920"
     inkscape:window-height="1054"
     id="namedview232"
     showgrid="true"
     showguides="true"
     inkscape:snap-to-guides="true"
     inkscape:guide-bbox="true"
     inkscape:zoom="0.72159091"
     inkscape:cx="714.22253"
     inkscape:cy="650.9595"
     inkscape:window-x="1920"
     inkscape:window-y="0"
     inkscape:window-maximized="1"
     inkscape:current-layer="svg230">
    <inkscape:grid
       type="xygrid"
       id="grid3949" />
    <sodipodi:guide
       position="0,0"
       orientation="0,2078.7402"
       id="guide3951"
       inkscape:locked="false" />
    <sodipodi:guide
       position="1098,0"
       orientation="-529.13386,0"
       id="guide3953"
       inkscape:locked="false" />
    <sodipodi:guide
       position="1098,265"
       orientation="0,-2078.7402"
       id="guide3955"
       inkscape:locked="false" />
    <sodipodi:guide
       position="153.17931,280.45834"
       orientation="529.13386,0"
       id="guide3957"
       inkscape:locked="false" />
    <sodipodi:guide
       position="142.61522,190.31101"
       orientation="1,0"
       id="guide3963"
       inkscape:locked="false" />
  </sodipodi:namedview>
  <g
     id="g10"
     transform="matrix(1.0150611,0,0,1,23.13519,-3.970905)">
    <rect
       style="fill:#ffffb2"
       x="503.00201"
       y="165.55"
       width="301.81299"
       height="262"
       id="rect2" />
    <rect
       style="fill:none;fill-opacity:0;stroke:#f3f058;stroke-width:2"
       x="503.00201"
       y="165.55"
       width="301.81299"
       height="262"
       id="rect4" />
    <text
       font-size="12.8"
       style="font-style:normal;font-weight:normal;font-size:12.80000019px;font-family:sans-serif;text-anchor:middle;fill:#000000"
       x="653.90802"
       y="300.14999"
       id="text8">
      <tspan
         x="653.90802"
         y="300.14999"
         id="tspan6" />
    </text>
  </g>
  <g
     id="g20"
     transform="matrix(1.016628,0,0,1,-4.1948904,-3.970905)">
    <rect
       style="fill:#ffffb2"
       x="132"
       y="165.55"
       width="239"
       height="262"
       id="rect12" />
    <rect
       style="fill:none;fill-opacity:0;stroke:#f3f058;stroke-width:2"
       x="132"
       y="165.55"
       width="239"
       height="262"
       id="rect14" />
    <text
       font-size="12.8"
       style="font-style:normal;font-weight:normal;font-size:12.80000019px;font-family:sans-serif;text-anchor:middle;fill:#000000"
       x="251.5"
       y="300.14999"
       id="text18">
      <tspan
         x="251.5"
         y="300.14999"
         id="tspan16" />
    </text>
  </g>
  <text
     font-size="12.8"
     style="font-style:normal;font-weight:normal;font-size:17.86266327px;font-family:sans-serif;text-anchor:start;fill:#000000;stroke-width:1.39552045"
     x="135.0367"
     y="178.43579"
     id="text24">
    <tspan
       x="135.0367"
       y="178.43579"
       id="tspan22"
       style="font-size:17.60681725px;stroke-width:1.39552045">Client</tspan>
  </text>
  <text
     font-size="12.8"
     style="font-style:normal;font-weight:normal;font-size:12.80000019px;font-family:sans-serif;text-anchor:start;fill:#000000"
     x="536.4198"
     y="178.52701"
     id="text28">
    <tspan
       x="536.4198"
       y="178.52701"
       id="tspan26"
       style="font-size:17.60681725px">Docker Host</tspan>
  </text>
  <g
     id="g38"
     transform="matrix(1.0166277,0,0,1,-19.550124,-3.970905)">
    <rect
       style="fill:#ffffb2"
       x="988.79999"
       y="165.55"
       width="239"
       height="262"
       id="rect30" />
    <rect
       style="fill:none;fill-opacity:0;stroke:#f3f058;stroke-width:2"
       x="988.79999"
       y="165.55"
       width="239"
       height="262"
       id="rect32" />
    <text
       font-size="12.8"
       style="font-style:normal;font-weight:normal;font-size:12.80000019px;font-family:sans-serif;text-anchor:middle;fill:#000000"
       x="1108.3"
       y="300.14999"
       id="text36">
      <tspan
         x="1108.3"
         y="300.14999"
         id="tspan34" />
    </text>
  </g>
  <text
     font-size="12.8"
     style="font-style:normal;font-weight:normal;font-size:17.60690308px;font-family:sans-serif;text-anchor:start;fill:#000000"
     x="988.64801"
     y="178.13"
     id="text42">
    <tspan
       x="988.64801"
       y="178.13"
       id="tspan40"
       style="font-size:17.60690308px">Registry</tspan>
  </text>
  <text
     font-size="12.8"
     style="fill: #000000;text-anchor:start;font-family:sans-serif;font-style:normal;font-weight:normal"
     x="138.582"
     y="163.845"
     id="text46">
    <tspan
       x="138.582"
       y="163.845"
       id="tspan44" />
  </text>
  <g
     id="g80"
     transform="translate(33.969802)">
    <rect
       style="fill:#ffffff"
       x="541.242"
       y="205.73801"
       width="238.75301"
       height="38"
       id="rect48" />
    <path
       style="fill:#ffffff"
       d="m 541.242,205.738 a 4,4 0 0 0 -4,4 h 4 z"
       id="path50"
       inkscape:connector-curvature="0" />
    <path
       style="fill:#ffffff"
       d="m 783.995,209.738 a 4,4 0 0 0 -4,-4 v 4 z"
       id="path52"
       inkscape:connector-curvature="0" />
    <rect
       style="fill:#ffffff"
       x="537.242"
       y="209.73801"
       width="246.75301"
       height="30"
       id="rect54" />
    <path
       style="fill:#ffffff"
       d="m 537.242,239.738 a 4,4 0 0 0 4,4 v -4 z"
       id="path56"
       inkscape:connector-curvature="0" />
    <path
       style="fill:#ffffff"
       d="m 779.995,243.738 a 4,4 0 0 0 4,-4 h -4 z"
       id="path58"
       inkscape:connector-curvature="0" />
    <line
       style="fill:none;fill-opacity:0;stroke:#000000;stroke-width:2"
       x1="541.242"
       y1="205.73801"
       x2="779.995"
       y2="205.73801"
       id="line60" />
    <line
       style="fill:none;fill-opacity:0;stroke:#000000;stroke-width:2"
       x1="541.242"
       y1="243.73801"
       x2="779.995"
       y2="243.73801"
       id="line62" />
    <path
       style="fill:none;fill-opacity:0;stroke:#000000;stroke-width:2"
       d="m 541.242,205.738 a 4,4 0 0 0 -4,4"
       id="path64"
       inkscape:connector-curvature="0" />
    <path
       style="fill:none;fill-opacity:0;stroke:#000000;stroke-width:2"
       d="m 783.995,209.738 a 4,4 0 0 0 -4,-4"
       id="path66"
       inkscape:connector-curvature="0" />
    <line
       style="fill:none;fill-opacity:0;stroke:#000000;stroke-width:2"
       x1="537.242"
       y1="209.73801"
       x2="537.242"
       y2="239.73801"
       id="line68" />
    <line
       style="fill:none;fill-opacity:0;stroke:#000000;stroke-width:2"
       x1="783.995"
       y1="209.73801"
       x2="783.995"
       y2="239.73801"
       id="line70" />
    <path
       style="fill:none;fill-opacity:0;stroke:#000000;stroke-width:2"
       d="m 537.242,239.738 a 4,4 0 0 0 4,4"
       id="path72"
       inkscape:connector-curvature="0" />
    <path
       style="fill:none;fill-opacity:0;stroke:#000000;stroke-width:2"
       d="m 779.995,243.738 a 4,4 0 0 0 4,-4"
       id="path74"
       inkscape:connector-curvature="0" />
    <text
       font-size="12.8"
       style="font-style:normal;font-weight:normal;font-size:12.80000019px;font-family:sans-serif;text-anchor:middle;fill:#000000"
       x="659.88702"
       y="231.26599"
       id="text78">
      <tspan
         x="659.88702"
         y="231.26599"
         id="tspan76"
         style="font-size:21.12818146px">Docker daemon</tspan>
    </text>
  </g>
  <g
     id="g114"
     transform="translate(33.969802)">
    <rect
       style="fill:#a4cefa"
       x="539.72198"
       y="320.66"
       width="92.199997"
       height="38"
       id="rect82" />
    <path
       style="fill:#a4cefa"
       d="m 539.722,320.66 a 2,2 0 0 0 -2,2 h 2 z"
       id="path84"
       inkscape:connector-curvature="0" />
    <path
       style="fill:#a4cefa"
       d="m 633.922,322.66 a 2,2 0 0 0 -2,-2 v 2 z"
       id="path86"
       inkscape:connector-curvature="0" />
    <rect
       style="fill:#a4cefa"
       x="537.72198"
       y="322.66"
       width="96.199997"
       height="34"
       id="rect88" />
    <path
       style="fill:#a4cefa"
       d="m 537.722,356.66 a 2,2 0 0 0 2,2 v -2 z"
       id="path90"
       inkscape:connector-curvature="0" />
    <path
       style="fill:#a4cefa"
       d="m 631.922,358.66 a 2,2 0 0 0 2,-2 h -2 z"
       id="path92"
       inkscape:connector-curvature="0" />
    <line
       style="fill:none;fill-opacity:0;stroke:#04457e;stroke-width:2"
       x1="539.72198"
       y1="320.66"
       x2="631.922"
       y2="320.66"
       id="line94" />
    <line
       style="fill:none;fill-opacity:0;stroke:#04457e;stroke-width:2"
       x1="539.72198"
       y1="358.66"
       x2="631.922"
       y2="358.66"
       id="line96" />
    <path
       style="fill:none;fill-opacity:0;stroke:#04457e;stroke-width:2"
       d="m 539.722,320.66 a 2,2 0 0 0 -2,2"
       id="path98"
       inkscape:connector-curvature="0" />
    <path
       style="fill:none;fill-opacity:0;stroke:#04457e;stroke-width:2"
       d="m 633.922,322.66 a 2,2 0 0 0 -2,-2"
       id="path100"
       inkscape:connector-curvature="0" />
    <line
       style="fill:none;fill-opacity:0;stroke:#04457e;stroke-width:2"
       x1="537.72198"
       y1="322.66"
       x2="537.72198"
       y2="356.66"
       id="line102" />
    <line
       style="fill:none;fill-opacity:0;stroke:#04457e;stroke-width:2"
       x1="633.922"
       y1="322.66"
       x2="633.922"
       y2="356.66"
       id="line104" />
    <path
       style="fill:none;fill-opacity:0;stroke:#04457e;stroke-width:2"
       d="m 537.722,356.66 a 2,2 0 0 0 2,2"
       id="path106"
       inkscape:connector-curvature="0" />
    <path
       style="fill:none;fill-opacity:0;stroke:#04457e;stroke-width:2"
       d="m 631.922,358.66 a 2,2 0 0 0 2,-2"
       id="path108"
       inkscape:connector-curvature="0" />
    <text
       font-size="12.8"
       style="font-style:normal;font-weight:normal;font-size:17.60681725px;font-family:sans-serif;text-anchor:middle;fill:#000000"
       x="585.82202"
       y="345.20102"
       id="text112">
      <tspan
         x="585.82202"
         y="345.20102"
         id="tspan110"
         style="font-size:17.60681725px">Containers</tspan>
    </text>
  </g>
  <g
     id="g148"
     transform="translate(33.969802)">
    <rect
       style="fill:#a4cefa"
       x="688.526"
       y="320.66"
       width="92.199997"
       height="38"
       id="rect116" />
    <path
       style="fill:#a4cefa"
       d="m 688.526,320.66 a 2,2 0 0 0 -2,2 h 2 z"
       id="path118"
       inkscape:connector-curvature="0" />
    <path
       style="fill:#a4cefa"
       d="m 782.726,322.66 a 2,2 0 0 0 -2,-2 v 2 z"
       id="path120"
       inkscape:connector-curvature="0" />
    <rect
       style="fill:#a4cefa"
       x="686.526"
       y="322.66"
       width="96.199997"
       height="34"
       id="rect122" />
    <path
       style="fill:#a4cefa"
       d="m 686.526,356.66 a 2,2 0 0 0 2,2 v -2 z"
       id="path124"
       inkscape:connector-curvature="0" />
    <path
       style="fill:#a4cefa"
       d="m 780.726,358.66 a 2,2 0 0 0 2,-2 h -2 z"
       id="path126"
       inkscape:connector-curvature="0" />
    <line
       style="fill:none;fill-opacity:0;stroke:#04457e;stroke-width:2"
       x1="688.526"
       y1="320.66"
       x2="780.72601"
       y2="320.66"
       id="line128" />
    <line
       style="fill:none;fill-opacity:0;stroke:#04457e;stroke-width:2"
       x1="688.526"
       y1="358.66"
       x2="780.72601"
       y2="358.66"
       id="line130" />
    <path
       style="fill:none;fill-opacity:0;stroke:#04457e;stroke-width:2"
       d="m 688.526,320.66 a 2,2 0 0 0 -2,2"
       id="path132"
       inkscape:connector-curvature="0" />
    <path
       style="fill:none;fill-opacity:0;stroke:#04457e;stroke-width:2"
       d="m 782.726,322.66 a 2,2 0 0 0 -2,-2"
       id="path134"
       inkscape:connector-curvature="0" />
    <line
       style="fill:none;fill-opacity:0;stroke:#04457e;stroke-width:2"
       x1="686.526"
       y1="322.66"
       x2="686.526"
       y2="356.66"
       id="line136" />
    <line
       style="fill:none;fill-opacity:0;stroke:#04457e;stroke-width:2"
       x1="782.72601"
       y1="322.66"
       x2="782.72601"
       y2="356.66"
       id="line138" />
    <path
       style="fill:none;fill-opacity:0;stroke:#04457e;stroke-width:2"
       d="m 686.526,356.66 a 2,2 0 0 0 2,2"
       id="path140"
       inkscape:connector-curvature="0" />
    <path
       style="fill:none;fill-opacity:0;stroke:#04457e;stroke-width:2"
       d="m 780.726,358.66 a 2,2 0 0 0 2,-2"
       id="path142"
       inkscape:connector-curvature="0" />
    <text
       font-size="12.8"
       style="font-style:normal;font-weight:normal;font-size:1285.29772949px;font-family:sans-serif;text-anchor:middle;fill:#000000"
       x="734.62598"
       y="345.27301"
       id="text146">
      <tspan
         x="734.62598"
         y="345.27301"
         id="tspan144"
         style="font-size:17.60690308px">Images</tspan>
    </text>
  </g>
  <g
     id="g182">
    <rect
       style="fill:#a4cefa"
       x="1047.09"
       y="262.85199"
       width="92.199997"
       height="38"
       id="rect150" />
    <path
       style="fill:#a4cefa"
       d="m 1047.09,262.852 a 2,2 0 0 0 -2,2 h 2 z"
       id="path152"
       inkscape:connector-curvature="0" />
    <path
       style="fill:#a4cefa"
       d="m 1141.29,264.852 a 2,2 0 0 0 -2,-2 v 2 z"
       id="path154"
       inkscape:connector-curvature="0" />
    <rect
       style="fill:#a4cefa"
       x="1045.09"
       y="264.85199"
       width="96.199997"
       height="34"
       id="rect156" />
    <path
       style="fill:#a4cefa"
       d="m 1045.09,298.852 a 2,2 0 0 0 2,2 v -2 z"
       id="path158"
       inkscape:connector-curvature="0" />
    <path
       style="fill:#a4cefa"
       d="m 1139.29,300.852 a 2,2 0 0 0 2,-2 h -2 z"
       id="path160"
       inkscape:connector-curvature="0" />
    <line
       style="fill:none;fill-opacity:0;stroke:#04457e;stroke-width:2"
       x1="1047.09"
       y1="262.85199"
       x2="1139.29"
       y2="262.85199"
       id="line162" />
    <line
       style="fill:none;fill-opacity:0;stroke:#04457e;stroke-width:2"
       x1="1047.09"
       y1="300.85199"
       x2="1139.29"
       y2="300.85199"
       id="line164" />
    <path
       style="fill:none;fill-opacity:0;stroke:#04457e;stroke-width:2"
       d="m 1047.09,262.852 a 2,2 0 0 0 -2,2"
       id="path166"
       inkscape:connector-curvature="0" />
    <path
       style="fill:none;fill-opacity:0;stroke:#04457e;stroke-width:2"
       d="m 1141.29,264.852 a 2,2 0 0 0 -2,-2"
       id="path168"
       inkscape:connector-curvature="0" />
    <line
       style="fill:none;fill-opacity:0;stroke:#04457e;stroke-width:2"
       x1="1045.09"
       y1="264.85199"
       x2="1045.09"
       y2="298.85199"
       id="line170" />
    <line
       style="fill:none;fill-opacity:0;stroke:#04457e;stroke-width:2"
       x1="1141.29"
       y1="264.85199"
       x2="1141.29"
       y2="298.85199"
       id="line172" />
    <path
       style="fill:none;fill-opacity:0;stroke:#04457e;stroke-width:2"
       d="m 1045.09,298.852 a 2,2 0 0 0 2,2"
       id="path174"
       inkscape:connector-curvature="0" />
    <path
       style="fill:none;fill-opacity:0;stroke:#04457e;stroke-width:2"
       d="m 1139.29,300.852 a 2,2 0 0 0 2,-2"
       id="path176"
       inkscape:connector-curvature="0" />
    <text
       font-size="12.8"
       style="font-style:normal;font-weight:normal;font-size:17.60681725px;font-family:sans-serif;text-anchor:middle;fill:#000000"
       x="1093.1899"
       y="287.465"
       id="text180">
      <tspan
         x="1093.1899"
         y="287.465"
         id="tspan178"
         style="font-size:17.60681725px">Images</tspan>
    </text>
  </g>
  <text
     font-size="12.8"
     style="font-style:normal;font-weight:normal;font-size:21.12818146px;font-family:sans-serif;text-anchor:start;fill:#000000;stroke-width:1.63067389"
     x="171.77345"
     y="228.22495"
     id="text186">
    <tspan
       x="171.77345"
       y="228.22495"
       id="tspan184"
       style="font-size:21.12818146px;stroke-width:1.63067389">docker pull</tspan>
  </text>
  <text
     font-size="12.8"
     style="font-style:normal;font-weight:normal;font-size:21.43519592px;font-family:sans-serif;text-anchor:start;fill:#000000;stroke-width:1.67462468"
     x="160.14825"
     y="283.1622"
     id="text190">
    <tspan
       x="160.14825"
       y="283.1622"
       id="tspan188"
       style="font-size:21.12818146px;stroke-width:1.67462468">docker build</tspan>
  </text>
  <text
     font-size="12.8"
     style="font-style:normal;font-weight:normal;font-size:12.80000019px;font-family:sans-serif;text-anchor:start;fill:#000000"
     x="173.758"
     y="338.72003"
     id="text194">
    <tspan
       x="173.758"
       y="338.72003"
       id="tspan192"
       style="font-size:21.12818146px">docker run</tspan>
  </text>
  <path
     style="fill:none;fill-opacity:0;stroke:#ff0000;stroke-width:2.13173652"
     d="m 283.17931,222.29867 c 125.60807,-52.17719 210.4618,-11.06658 290.51249,5.64162"
     id="path196"
     inkscape:connector-curvature="0" />
  <path
     style="fill:none;fill-opacity:0;stroke:#268612;stroke-width:2.14361262"
     d="m 283.17931,274.85209 c 97.30209,-43.02924 204.73048,-35.57535 289.30296,-47.0162"
     id="path198"
     inkscape:connector-curvature="0" />
  <path
     style="fill:none;fill-opacity:0;stroke:#0000ff;stroke-width:2.12922001"
     d="m 283.17931,330.60455 c 94.86062,0 225.84087,-68.5978 290.14917,-102.45742"
     id="path200"
     inkscape:connector-curvature="0" />
  <g
     id="g208"
     transform="translate(33.969802)">
    <path
       style="fill:none;fill-opacity:0;stroke:#268612;stroke-width:2"
       d="m 705.376,244.436 c -2.782,17.588 30.716,70.266 28.997,66.2"
       id="path202"
       inkscape:connector-curvature="0" />
    <polygon
       style="fill:#268612"
       points="728.795,310.28 734.373,310.636 738.006,306.387 737.293,317.544 "
       id="polygon204" />
    <polygon
       style="fill:none;fill-opacity:0;stroke:#268612;stroke-width:2"
       points="728.795,310.28 734.373,310.636 738.006,306.387 737.293,317.544 "
       id="polygon206" />
  </g>
  <path
     style="fill:none;fill-opacity:0;stroke:#ff0000;stroke-width:1.79058063"
     d="m 816.66588,226.18035 c 74.85447,0 152.27523,53.5668 227.12792,53.5668"
     id="path210"
     inkscape:connector-curvature="0" />
  <path
     inkscape:connector-curvature="0"
     id="path212"
     d="m 1043.7938,279.75515 c -74.69673,0 -150.29158,61.9231 -216.56383,61.9231"
     style="fill:none;fill-opacity:0;stroke:#ff0000;stroke-width:1.96618581"
     inkscape:transform-center-x="0.53208574"
     inkscape:transform-center-y="1.059048" />
  <polygon
     id="polygon214"
     points="793.77,339.578 796.27,344.578 786.27,339.578 796.27,334.578 "
     style="fill:#ff0000"
     transform="matrix(0.99340846,0,0,1.1435438,38.692141,-47.15368)" />
  <polygon
     id="polygon216"
     points="793.77,339.578 796.27,344.578 786.27,339.578 796.27,334.578 "
     style="fill:none;fill-opacity:0;stroke:#ff0000;stroke-width:2"
     transform="matrix(0.99340846,0,0,1.1435438,38.692141,-47.15368)" />
  <path
     style="fill:none;fill-opacity:0;stroke:#0000ff;stroke-width:2"
     d="m 687.6358,244.598 c -2.18,3.136 15.508,71.924 31.07,87.486"
     id="path220"
     inkscape:connector-curvature="0" />
  <g
     id="g228"
     transform="translate(33.969802)">
    <path
       style="fill:none;fill-opacity:0;stroke:#0000ff;stroke-width:2"
       d="m 684.224,331.048 c -14.072,13.206 -33.056,9.538 -39.912,9.538"
       id="path222"
       inkscape:connector-curvature="0" />
    <polygon
       style="fill:#0000ff"
       points="646.812,335.586 644.312,340.586 646.812,345.586 636.812,340.586 "
       id="polygon224" />
    <polygon
       style="fill:none;fill-opacity:0;stroke:#0000ff;stroke-width:2"
       points="646.812,335.586 644.312,340.586 646.812,345.586 636.812,340.586 "
       id="polygon226" />
  </g>
</svg>
